<svg width="40" height="40" viewBox="0 0 40 40" fill="none" xmlns="http://www.w3.org/2000/svg">
<g clip-path="url(#clip0_18_115)">
<path d="M26.2717 38.5417C26.2717 36.9257 25.6297 35.3758 24.487 34.2331C23.3443 33.0903 21.7944 32.4484 20.1783 32.4484C18.5623 32.4484 17.0124 33.0903 15.8697 34.2331C14.727 35.3758 14.085 36.9257 14.085 38.5417M38.215 34.0184C38.2155 32.8735 37.8861 31.7528 37.2662 30.7902C36.6464 29.8277 35.7624 29.064 34.72 28.5907C33.6775 28.1174 32.5208 27.9545 31.3882 28.1213C30.2555 28.2882 29.195 28.7779 28.3333 29.5317M1.785 34.0184C1.78455 32.8735 2.11394 31.7528 2.73377 30.7902C3.35359 29.8277 4.2376 29.064 5.28004 28.5907C6.32247 28.1174 7.4792 27.9545 8.61183 28.1213C9.74446 28.2882 10.805 28.7779 11.6667 29.5317M20 15.2084C20.6566 15.2084 21.3068 15.079 21.9134 14.8278C22.52 14.5765 23.0712 14.2082 23.5355 13.7439M20 15.2084C18.6739 15.2084 17.4021 14.6816 16.4645 13.7439M20 15.2084V18.9584M23.5355 13.7439C23.9998 13.2796 24.3681 12.7284 24.6194 12.1218C24.8707 11.5152 25 10.865 25 10.2084M23.5355 13.7439L26.1867 16.395M25 10.2084C25 9.55176 24.8707 8.90158 24.6194 8.29496C24.3681 7.68833 23.9998 7.13713 23.5355 6.67284M25 10.2084H28.75M23.5355 6.67284C23.0712 6.20855 22.52 5.84025 21.9134 5.58898C21.3068 5.3377 20.6566 5.20837 20 5.20837M23.5355 6.67284L26.1867 4.02171M20 5.20837C18.6739 5.20837 17.4021 5.73516 16.4645 6.67284M20 5.20837V1.45837M16.4645 6.67284C15.5268 7.61052 15 8.88229 15 10.2084M16.4645 6.67284L13.8133 4.02171M15 10.2084C15 11.5345 15.5268 12.8062 16.4645 13.7439M15 10.2084H11.25M16.4645 13.7439L13.8133 16.395M19.1667 1.45837H20.8333M25.5983 3.43171L26.7767 4.61004M28.75 9.37504V11.0417M26.7767 15.8067L25.5983 16.985M20.8333 18.9584H19.1667M14.4017 16.985L13.2233 15.8067M11.25 11.0417V9.37504M13.2233 4.61004L14.4017 3.43171M20.1783 30.4184C20.6299 30.4184 21.077 30.3294 21.4941 30.1566C21.9113 29.9839 22.2903 29.7306 22.6096 29.4113C22.9289 29.092 23.1821 28.713 23.3549 28.2958C23.5277 27.8787 23.6167 27.4316 23.6167 26.98C23.6167 26.5285 23.5277 26.0814 23.3549 25.6642C23.1821 25.2471 22.9289 24.868 22.6096 24.5488C22.2903 24.2295 21.9113 23.9762 21.4941 23.8034C21.077 23.6306 20.6299 23.5417 20.1783 23.5417C19.2664 23.5417 18.3919 23.904 17.7471 24.5488C17.1023 25.1936 16.74 26.0681 16.74 26.98C16.74 27.8919 17.1023 28.7665 17.7471 29.4113C18.3919 30.0561 19.2664 30.4184 20.1783 30.4184ZM32.255 26.0734C33.1466 26.0734 34.0016 25.7192 34.6321 25.0888C35.2625 24.4583 35.6167 23.6033 35.6167 22.7117C35.6167 21.8201 35.2625 20.9651 34.6321 20.3346C34.0016 19.7042 33.1466 19.35 32.255 19.35C31.3634 19.35 30.5084 19.7042 29.8779 20.3346C29.2475 20.9651 28.8933 21.8201 28.8933 22.7117C28.8933 23.6033 29.2475 24.4583 29.8779 25.0888C30.5084 25.7192 31.3634 26.0734 32.255 26.0734ZM7.745 26.0734C8.63657 26.0734 9.49163 25.7192 10.1221 25.0888C10.7525 24.4583 11.1067 23.6033 11.1067 22.7117C11.1067 21.8201 10.7525 20.9651 10.1221 20.3346C9.49163 19.7042 8.63657 19.35 7.745 19.35C6.85343 19.35 5.99838 19.7042 5.36795 20.3346C4.73751 20.9651 4.38334 21.8201 4.38334 22.7117C4.38334 23.6033 4.73751 24.4583 5.36795 25.0888C5.99838 25.7192 6.85343 26.0734 7.745 26.0734Z" stroke="url(#paint0_linear_18_115)" stroke-width="2.5" stroke-linecap="round" stroke-linejoin="round"/>
</g>
<defs>
<linearGradient id="paint0_linear_18_115" x1="20" y1="1.45837" x2="20" y2="38.5417" gradientUnits="userSpaceOnUse">
<stop stop-color="#2A007A"/>
<stop offset="1" stop-color="#F15A29"/>
</linearGradient>
<clipPath id="clip0_18_115">
<rect width="40" height="40" fill="white"/>
</clipPath>
</defs>
</svg>
