<svg width="100" height="61" viewBox="0 0 100 61" fill="none" xmlns="http://www.w3.org/2000/svg">
<path d="M30.7792 37.9C30.7792 43.8292 26.8917 48.125 19.0167 49.0458C13.3917 49.6583 5.1125 48.9417 1.125 48.4292C1.02083 47.8167 0.816667 47 0.816667 46.3875C0.816667 41.1708 3.57917 40.0458 6.23333 40.0458C9 40.0458 13.2917 40.5583 16.4625 40.5583C19.9375 40.5583 21.0625 39.3292 21.0625 38.2042C21.0625 36.6708 19.6333 36.0583 16.8708 35.5458L9.50833 34.1167C3.27083 32.8875 0 28.5958 0 24.0958C0 18.575 3.8875 13.8708 11.6583 13.0542C17.4833 12.4375 24.6417 13.1542 28.5292 13.5625C28.6292 14.2792 28.7333 14.8958 28.7333 15.6083C28.7333 20.825 25.9708 21.95 23.4167 21.95C21.3708 21.95 18.3042 21.5375 14.725 21.5375C11.0417 21.5375 9.6125 22.5625 9.6125 23.7875C9.6125 25.1208 11.0417 25.6292 13.2917 26.0375L20.45 27.3708C27.7083 28.5958 30.7792 32.7875 30.7792 37.9ZM43.6625 44.2375C43.6625 47.4083 42.4333 49.25 36.1958 49.25C35.3792 49.25 34.6625 49.1458 33.9458 49.0417V6.91667C33.9458 3.75 35.0708 0.375 41.3083 0.375C42.125 0.375 42.9458 0.474999 43.6625 0.579166V44.2375ZM69.0167 60.6C69.8375 61.0083 71.475 61.5167 73.6208 61.6208C77.2 61.725 79.1417 60.2917 80.675 57.1208L100 13.9708C98.7445 13.4047 97.3892 13.0931 96.0125 13.0542C93.5583 13.0542 90.1833 13.5625 88.0375 18.575L81.8 33.3L69.5292 13.2583C68.7125 13.05 66.7708 12.6417 65.3375 12.6417C61.0458 12.6417 58.5875 14.2792 56.0333 16.9375L44.0708 30.025L53.6792 45.1583C55.4208 47.9208 57.7708 49.35 61.5542 49.35C64.0083 49.35 66.1542 48.7375 67.075 48.3292L55.5208 30.8458L63.7 22.1542L77.2 43.3208L69.0167 60.6Z" fill="white"/>
</svg>
