<svg width="200" height="61" viewBox="0 0 200 61" fill="none" xmlns="http://www.w3.org/2000/svg">
<g clip-path="url(#clip0_16_50)">
<path d="M120.067 49.6666C110.375 56.8 96.3417 60.6083 84.25 60.6083C68.0965 60.689 52.4947 54.7366 40.5 43.9166C39.6 43.1 40.4167 41.9833 41.5 42.6166C53.9584 49.8666 69.3584 54.225 85.2667 54.225C96 54.225 107.8 52.0083 118.658 47.4C120.292 46.7 121.667 48.475 120.067 49.6666Z" fill="white"/>
<path d="M124.083 45.0583C125.333 46.6416 122.708 53.1833 121.542 56.1C121.192 56.9833 121.95 57.3416 122.75 56.675C127.95 52.325 129.283 43.225 128.225 41.9083C127.167 40.5916 118.083 39.475 112.55 43.375C111.692 43.9666 111.833 44.7916 112.783 44.6833C115.908 44.3083 122.85 43.475 124.083 45.0583ZM113 15.875V12.0833C113 11.5083 113.442 11.125 113.958 11.125H130.917C131.458 11.125 131.892 11.5166 131.892 12.0833V15.3333C131.892 15.875 131.433 16.5833 130.617 17.7083L121.833 30.25C125.1 30.1666 128.542 30.6583 131.5 32.325C132.167 32.7 132.35 33.25 132.408 33.8V37.8416C132.408 38.3916 131.792 39.0333 131.158 38.7C128.387 37.273 125.313 36.5313 122.196 36.5371C119.079 36.5429 116.008 37.296 113.242 38.7333C112.658 39.05 112.042 38.4083 112.042 37.8583V34.025C112.042 33.4083 112.042 32.3583 112.667 31.4166L122.833 16.8333H113.975C113.433 16.8333 112.992 16.4416 112.992 15.8833M51.1584 39.5H45.9917C45.7613 39.4824 45.5442 39.3857 45.3771 39.2262C45.21 39.0667 45.1032 38.8542 45.075 38.625V12.15C45.075 11.6166 45.5167 11.2 46.075 11.2H50.8834C51.3834 11.2166 51.7834 11.6083 51.8167 12.0833V15.5416H51.9084C53.1584 12.2 55.525 10.6416 58.7 10.6416C61.9334 10.6416 63.95 12.2 65.4 15.5416C65.9151 14.0752 66.8828 12.8104 68.1634 11.9297C69.4441 11.049 70.9714 10.5979 72.525 10.6416C73.6768 10.6211 74.8172 10.8722 75.8538 11.3746C76.8905 11.877 77.7941 12.6165 78.4917 13.5333C80.125 15.7583 79.7917 19 79.7917 21.8333V38.5416C79.7895 38.6704 79.7619 38.7975 79.7103 38.9155C79.6588 39.0335 79.5844 39.1401 79.4914 39.2292C79.3984 39.3183 79.2887 39.3881 79.1686 39.4346C79.0485 39.4811 78.9204 39.5033 78.7917 39.5H73.6417C73.3952 39.4837 73.1635 39.3768 72.9912 39.1998C72.8189 39.0229 72.7181 38.7884 72.7084 38.5416V24.5083C72.7084 23.3916 72.8084 20.6083 72.5667 19.55C72.1834 17.775 71.025 17.275 69.5334 17.275C68.2834 17.275 66.9834 18.1083 66.45 19.4416C65.9167 20.775 65.975 23.0083 65.975 24.5083V38.5416C65.9729 38.6704 65.9452 38.7975 65.8937 38.9155C65.8421 39.0335 65.7677 39.1401 65.6748 39.2292C65.5818 39.3183 65.4721 39.3881 65.352 39.4346C65.2319 39.4811 65.1038 39.5033 64.975 39.5H59.8334C59.5864 39.4873 59.3535 39.3813 59.1817 39.2034C59.01 39.0254 58.9123 38.7889 58.9084 38.5416L58.9 24.5083C58.9 21.5583 59.3834 17.2166 55.725 17.2166C52.0167 17.2166 52.1584 21.45 52.1584 24.5083V38.5416C52.1562 38.6704 52.1286 38.7975 52.077 38.9155C52.0255 39.0335 51.9511 39.1401 51.8581 39.2292C51.7651 39.3183 51.6554 39.3881 51.5353 39.4346C51.4152 39.4811 51.2871 39.5033 51.1584 39.5ZM146.5 10.6416C154.15 10.6416 158.292 17.2166 158.292 25.575C158.292 33.6416 153.708 40.05 146.492 40.05C138.975 40.05 134.883 33.475 134.883 25.2916C134.883 17.0416 139.033 10.6416 146.5 10.6416ZM146.525 16.0416C142.725 16.0416 142.483 21.225 142.483 24.4583C142.483 27.6916 142.433 34.6 146.483 34.6C150.483 34.6 150.667 29.0166 150.667 25.625C150.667 23.3916 150.583 20.725 149.9 18.6083C149.317 16.7666 148.167 16.0416 146.525 16.0416ZM168.217 39.5H163.075C162.83 39.4817 162.6 39.374 162.43 39.1972C162.259 39.0205 162.16 38.7871 162.15 38.5416L162.142 12.0583C162.171 11.8161 162.29 11.5935 162.475 11.4346C162.66 11.2757 162.898 11.192 163.142 11.2H167.917C168.128 11.2105 168.331 11.288 168.496 11.4213C168.661 11.5546 168.779 11.7368 168.833 11.9416V15.9833H168.933C170.375 12.3666 172.4 10.6416 175.967 10.6416C178.275 10.6416 180.533 11.475 181.983 13.7583C183.333 15.875 183.333 19.4416 183.333 22.0083V38.6666C183.294 38.902 183.171 39.1154 182.988 39.2683C182.804 39.4211 182.572 39.5033 182.333 39.5H177.167C176.942 39.4843 176.73 39.3935 176.564 39.2423C176.397 39.0912 176.287 38.8883 176.25 38.6666V24.2833C176.25 21.3916 176.583 17.1583 173.025 17.1583C171.775 17.1583 170.608 17.9916 170.042 19.275C169.317 20.8916 169.225 22.5 169.225 24.2833V38.5416C169.214 38.801 169.103 39.046 168.915 39.2249C168.727 39.4037 168.476 39.5023 168.217 39.5ZM99.4917 26.8583V25.7416C95.75 25.7416 91.8167 26.5333 91.8167 30.9333C91.8167 33.1583 92.975 34.6666 94.9584 34.6666C96.4 34.6666 97.7084 33.775 98.525 32.325C99.5417 30.5416 99.4917 28.8666 99.4917 26.8583ZM104.692 39.425C104.525 39.5659 104.32 39.6533 104.103 39.6756C103.886 39.6979 103.667 39.6541 103.475 39.55C101.758 38.1333 101.45 37.4666 100.508 36.1083C97.675 39 95.675 39.8583 92.0084 39.8583C87.6667 39.8583 84.2917 37.1916 84.2917 31.825C84.2917 27.6416 86.55 24.7833 89.7917 23.3916C92.5917 22.1583 96.5 21.9416 99.4917 21.6V20.9333C99.4917 19.7083 99.575 18.2583 98.8584 17.2C98.2334 16.25 97.025 15.8583 95.9584 15.8583C94 15.8583 92.25 16.8583 91.8167 18.95C91.7333 19.4166 91.3917 19.875 90.9167 19.9L85.9167 19.3583C85.5 19.2666 85.025 18.925 85.15 18.275C86.3 12.2166 91.7833 10.3833 96.6917 10.3833C99.1917 10.3833 102.475 11.05 104.458 12.9583C106.967 15.2916 106.725 18.425 106.725 21.825V29.8666C106.725 32.2833 107.725 33.3416 108.675 34.65C109 35.1083 109.075 35.6666 108.65 36.0166C107.6 36.9 105.733 38.525 104.7 39.4416L104.692 39.425ZM31.8667 26.8583V25.7416C28.1334 25.7416 24.2 26.5333 24.2 30.9333C24.2 33.1583 25.35 34.6666 27.3334 34.6666C28.7834 34.6666 30.0834 33.775 30.9 32.325C31.9167 30.5416 31.8667 28.8666 31.8667 26.8583ZM37.0667 39.425C36.9001 39.5659 36.6948 39.6533 36.4777 39.6756C36.2606 39.6979 36.0418 39.6541 35.85 39.55C34.1334 38.1333 33.8334 37.4666 32.8917 36.1083C30.0584 39 28.0584 39.8583 24.3917 39.8583C20.05 39.8583 16.6667 37.1916 16.6667 31.825C16.6667 27.6416 18.9334 24.7833 22.1667 23.3916C24.9667 22.1583 28.875 21.9416 31.8667 21.6V20.9333C31.8667 19.7083 31.9584 18.2583 31.2417 17.2C30.6084 16.25 29.4084 15.8583 28.35 15.8583C26.3834 15.8583 24.625 16.8583 24.2 18.95C24.1167 19.4166 23.7667 19.875 23.3084 19.9L18.3 19.3583C17.8834 19.2666 17.4167 18.925 17.5334 18.275C18.6834 12.2166 24.1584 10.3833 29.0667 10.3833C31.575 10.3833 34.8584 11.05 36.8334 12.9583C39.3417 15.2916 39.1084 18.425 39.1084 21.825V29.8666C39.1084 32.2833 40.1084 33.3416 41.05 34.65C41.3834 35.1083 41.4584 35.6666 41.0334 36.0166C39.9834 36.9 38.1167 38.525 37.0834 39.4416L37.0667 39.425Z" fill="white"/>
</g>
<defs>
<clipPath id="clip0_16_50">
<rect width="200" height="60" fill="white" transform="translate(0 0.5)"/>
</clipPath>
</defs>
</svg>
