<svg width="242" height="51" viewBox="0 0 242 51" fill="none" xmlns="http://www.w3.org/2000/svg">
<g clip-path="url(#clip0_16_41)">
<path d="M23.3188 0.5H0V22.9688H23.3188V0.5ZM50 0.5H26.6812V22.9688H50V0.5ZM23.3188 26.1594H0V50.5H23.3188V26.1594ZM50 26.1594H26.6812V50.5H50V26.1594Z" fill="white"/>
</g>
<path d="M58.32 41.5V11.7H61.92L73.08 27.58H71.24L82.32 11.7H85.92V41.5H81.96V16.66L83.36 17.1L72.28 32.7H71.96L61 17.1L62.24 16.66V41.5H58.32ZM92.0988 41.5V19.94H95.8188V41.5H92.0988ZM92.0988 16.5V11.7H95.8188V16.5H92.0988ZM111.591 41.98C109.484 41.98 107.604 41.4867 105.951 40.5C104.324 39.5133 103.044 38.1667 102.111 36.46C101.178 34.7533 100.711 32.8333 100.711 30.7C100.711 28.54 101.178 26.62 102.111 24.94C103.044 23.26 104.324 21.9267 105.951 20.94C107.604 19.9533 109.484 19.46 111.591 19.46C113.004 19.46 114.324 19.7133 115.551 20.22C116.778 20.7267 117.858 21.4067 118.791 22.26C119.724 23.1133 120.404 24.1133 120.831 25.26L117.511 26.86C117.004 25.74 116.231 24.8333 115.191 24.14C114.151 23.42 112.951 23.06 111.591 23.06C110.284 23.06 109.098 23.3933 108.031 24.06C106.991 24.7267 106.164 25.6333 105.551 26.78C104.938 27.9267 104.631 29.2467 104.631 30.74C104.631 32.18 104.938 33.4867 105.551 34.66C106.164 35.8067 106.991 36.7133 108.031 37.38C109.098 38.0467 110.284 38.38 111.591 38.38C112.951 38.38 114.151 38.0333 115.191 37.34C116.231 36.62 117.004 35.6733 117.511 34.5L120.831 36.18C120.404 37.3 119.724 38.3 118.791 39.18C117.858 40.0333 116.778 40.7133 115.551 41.22C114.324 41.7267 113.004 41.98 111.591 41.98ZM125.693 41.5V19.94H129.333V23.9L128.933 23.34C129.439 22.1133 130.213 21.2067 131.253 20.62C132.293 20.0067 133.559 19.7 135.053 19.7H136.373V23.22H134.493C132.973 23.22 131.746 23.7 130.813 24.66C129.879 25.5933 129.413 26.9267 129.413 28.66V41.5H125.693ZM149.917 41.98C147.837 41.98 145.957 41.5 144.277 40.54C142.597 39.5533 141.264 38.2067 140.277 36.5C139.29 34.7933 138.797 32.86 138.797 30.7C138.797 28.54 139.277 26.62 140.237 24.94C141.224 23.26 142.557 21.9267 144.237 20.94C145.917 19.9533 147.81 19.46 149.917 19.46C151.997 19.46 153.877 19.9533 155.557 20.94C157.237 21.9 158.557 23.22 159.517 24.9C160.504 26.58 160.997 28.5133 160.997 30.7C160.997 32.8867 160.49 34.8333 159.477 36.54C158.464 38.22 157.117 39.5533 155.437 40.54C153.784 41.5 151.944 41.98 149.917 41.98ZM149.917 38.38C151.25 38.38 152.45 38.0467 153.517 37.38C154.61 36.7133 155.464 35.7933 156.077 34.62C156.717 33.4467 157.037 32.14 157.037 30.7C157.037 29.2333 156.717 27.94 156.077 26.82C155.464 25.6733 154.61 24.7667 153.517 24.1C152.45 23.4067 151.25 23.06 149.917 23.06C148.557 23.06 147.33 23.4067 146.237 24.1C145.17 24.7667 144.317 25.6733 143.677 26.82C143.037 27.94 142.717 29.2333 142.717 30.7C142.717 32.14 143.037 33.4467 143.677 34.62C144.317 35.7933 145.17 36.7133 146.237 37.38C147.33 38.0467 148.557 38.38 149.917 38.38ZM173.569 41.98C171.409 41.98 169.529 41.4467 167.929 40.38C166.329 39.3133 165.195 37.8733 164.529 36.06L167.489 34.62C168.102 35.9 168.942 36.9133 170.009 37.66C171.075 38.4067 172.262 38.78 173.569 38.78C174.742 38.78 175.715 38.5 176.489 37.94C177.262 37.38 177.649 36.6467 177.649 35.74C177.649 35.1 177.462 34.5933 177.089 34.22C176.742 33.82 176.315 33.5133 175.809 33.3C175.302 33.06 174.835 32.8867 174.409 32.78L171.169 31.86C169.222 31.3 167.795 30.5 166.889 29.46C166.009 28.42 165.569 27.2067 165.569 25.82C165.569 24.54 165.889 23.4333 166.529 22.5C167.195 21.54 168.089 20.7933 169.209 20.26C170.355 19.7267 171.635 19.46 173.049 19.46C174.942 19.46 176.635 19.94 178.129 20.9C179.649 21.86 180.729 23.2067 181.369 24.94L178.329 26.34C177.849 25.22 177.129 24.34 176.169 23.7C175.209 23.0333 174.129 22.7 172.929 22.7C171.835 22.7 170.969 22.98 170.329 23.54C169.689 24.0733 169.369 24.7533 169.369 25.58C169.369 26.1933 169.529 26.7 169.849 27.1C170.169 27.4733 170.555 27.7667 171.009 27.98C171.462 28.1667 171.902 28.3267 172.329 28.46L175.849 29.5C177.609 30.0067 178.969 30.7933 179.929 31.86C180.915 32.9267 181.409 34.2067 181.409 35.7C181.409 36.9 181.075 37.98 180.409 38.94C179.742 39.9 178.822 40.6467 177.649 41.18C176.475 41.7133 175.115 41.98 173.569 41.98ZM196.518 41.98C194.438 41.98 192.558 41.5 190.878 40.54C189.198 39.5533 187.865 38.2067 186.878 36.5C185.892 34.7933 185.398 32.86 185.398 30.7C185.398 28.54 185.878 26.62 186.838 24.94C187.825 23.26 189.158 21.9267 190.838 20.94C192.518 19.9533 194.412 19.46 196.518 19.46C198.598 19.46 200.478 19.9533 202.158 20.94C203.838 21.9 205.158 23.22 206.118 24.9C207.105 26.58 207.598 28.5133 207.598 30.7C207.598 32.8867 207.092 34.8333 206.078 36.54C205.065 38.22 203.718 39.5533 202.038 40.54C200.385 41.5 198.545 41.98 196.518 41.98ZM196.518 38.38C197.852 38.38 199.052 38.0467 200.118 37.38C201.212 36.7133 202.065 35.7933 202.678 34.62C203.318 33.4467 203.638 32.14 203.638 30.7C203.638 29.2333 203.318 27.94 202.678 26.82C202.065 25.6733 201.212 24.7667 200.118 24.1C199.052 23.4067 197.852 23.06 196.518 23.06C195.158 23.06 193.932 23.4067 192.838 24.1C191.772 24.7667 190.918 25.6733 190.278 26.82C189.638 27.94 189.318 29.2333 189.318 30.7C189.318 32.14 189.638 33.4467 190.278 34.62C190.918 35.7933 191.772 36.7133 192.838 37.38C193.932 38.0467 195.158 38.38 196.518 38.38ZM214.066 41.5V23.5H209.946V19.94H214.066V18.42C214.066 16.8733 214.4 15.5667 215.066 14.5C215.76 13.4333 216.666 12.62 217.786 12.06C218.933 11.5 220.2 11.22 221.586 11.22C221.88 11.22 222.2 11.2467 222.546 11.3C222.92 11.3267 223.226 11.3667 223.466 11.42V14.74C223.253 14.6867 223 14.66 222.706 14.66C222.413 14.6333 222.186 14.62 222.026 14.62C220.8 14.62 219.786 14.9133 218.986 15.5C218.213 16.0867 217.826 17.06 217.826 18.42V19.94H222.946V23.5H217.826V41.5H214.066ZM237.031 41.74C234.924 41.74 233.297 41.14 232.151 39.94C231.031 38.74 230.471 37.0467 230.471 34.86V23.5H226.551V19.94H227.351C228.311 19.94 229.071 19.6467 229.631 19.06C230.191 18.4733 230.471 17.7 230.471 16.74V14.98H234.191V19.94H239.031V23.5H234.191V34.74C234.191 35.46 234.297 36.0867 234.511 36.62C234.751 37.1533 235.137 37.58 235.671 37.9C236.204 38.1933 236.911 38.34 237.791 38.34C237.977 38.34 238.204 38.3267 238.471 38.3C238.764 38.2733 239.031 38.2467 239.271 38.22V41.5C238.924 41.58 238.537 41.6333 238.111 41.66C237.684 41.7133 237.324 41.74 237.031 41.74Z" fill="white"/>
<defs>
<clipPath id="clip0_16_41">
<rect width="50" height="50" fill="white" transform="translate(0 0.5)"/>
</clipPath>
</defs>
</svg>
