<svg width="196" height="51" viewBox="0 0 196 51" fill="none" xmlns="http://www.w3.org/2000/svg">
<path d="M15.0021 21.2229C15.6516 19.6547 16.6497 18.2551 17.9207 17.1301C19.1917 16.0051 20.7022 15.1844 22.3377 14.7302C23.9732 14.276 25.6906 14.2003 27.3597 14.5087C29.0288 14.8172 30.6057 15.5017 31.9708 16.5104C32.7104 17.0562 33.7583 17.0687 34.4083 16.4187L37.7771 13.0521C38.4271 12.4021 38.4312 11.3396 37.7271 10.7479C35.4089 8.79967 32.6643 7.42514 29.7157 6.73577C26.7671 6.04639 23.6975 6.06158 20.7559 6.78009C17.8143 7.49861 15.0834 8.90023 12.7846 10.8713C10.4859 12.8424 8.68395 15.3274 7.52499 18.125M7.52499 18.125L15 21.2229C14.058 23.4961 13.8924 26.0166 14.529 28.3934C15.1656 30.7703 16.5688 32.8707 18.5208 34.3687M7.52499 18.125C5.90179 22.0442 5.61712 26.3895 6.71513 30.4869C7.81314 34.5844 10.2325 38.2051 13.5979 40.7875M18.5229 34.3667C20.4751 35.865 22.8672 36.6772 25.3281 36.6772C27.789 36.6772 30.1811 35.865 32.1333 34.3667M32.1333 34.3667C33.4808 33.3295 34.5756 32.0003 35.3354 30.4792H27.1896C26.7475 30.4792 26.3236 30.3036 26.0111 29.991C25.6985 29.6784 25.5229 29.2545 25.5229 28.8125V24.0417C25.5229 23.5996 25.6985 23.1757 26.0111 22.8631C26.3236 22.5506 26.7475 22.375 27.1896 22.375H42.8C43.4583 22.375 44.0708 22.7625 44.2187 23.4062C44.8708 26.2437 43.9583 30.1687 43.8896 30.4562L43.8812 30.4896C42.7812 34.5792 40.4208 38.2104 37.0604 40.7896M32.1333 34.3667L37.0604 40.7875C33.6949 43.3699 29.5713 44.7697 25.3292 44.7697C21.087 44.7697 16.9634 43.3699 13.5979 40.7875M18.525 34.3667L13.5979 40.7875" stroke="white" stroke-width="2" stroke-linecap="round" stroke-linejoin="round"/>
<path d="M67.08 41.98C64.9733 41.98 63.0267 41.6067 61.24 40.86C59.4533 40.0867 57.9067 39.0067 56.6 37.62C55.2933 36.2333 54.2667 34.6067 53.52 32.74C52.8 30.8733 52.44 28.8333 52.44 26.62C52.44 24.38 52.8 22.3267 53.52 20.46C54.24 18.5933 55.2533 16.9667 56.56 15.58C57.8667 14.1933 59.4133 13.1267 61.2 12.38C62.9867 11.6067 64.9333 11.22 67.04 11.22C69.0933 11.22 70.9333 11.58 72.56 12.3C74.2133 13.02 75.6 13.9533 76.72 15.1C77.8667 16.2467 78.68 17.4733 79.16 18.78L75.64 20.5C74.9467 18.7667 73.8667 17.3933 72.4 16.38C70.9333 15.3667 69.1467 14.86 67.04 14.86C64.96 14.86 63.1067 15.3533 61.48 16.34C59.88 17.3267 58.6267 18.7 57.72 20.46C56.8133 22.22 56.36 24.2733 56.36 26.62C56.36 28.94 56.8133 30.98 57.72 32.74C58.6533 34.5 59.92 35.8733 61.52 36.86C63.1467 37.8467 65 38.34 67.08 38.34C68.8933 38.34 70.5333 37.9533 72 37.18C73.4667 36.4067 74.6267 35.34 75.48 33.98C76.3333 32.62 76.76 31.0467 76.76 29.26V27.42L78.56 29.1H67.04V25.7H80.72V28.34C80.72 30.42 80.36 32.3 79.64 33.98C78.92 35.66 77.9333 37.1 76.68 38.3C75.4267 39.4733 73.9733 40.38 72.32 41.02C70.6667 41.66 68.92 41.98 67.08 41.98ZM95.8153 41.98C93.7353 41.98 91.8553 41.5 90.1753 40.54C88.4953 39.5533 87.162 38.2067 86.1753 36.5C85.1886 34.7933 84.6953 32.86 84.6953 30.7C84.6953 28.54 85.1753 26.62 86.1353 24.94C87.122 23.26 88.4553 21.9267 90.1353 20.94C91.8153 19.9533 93.7086 19.46 95.8153 19.46C97.8953 19.46 99.7753 19.9533 101.455 20.94C103.135 21.9 104.455 23.22 105.415 24.9C106.402 26.58 106.895 28.5133 106.895 30.7C106.895 32.8867 106.389 34.8333 105.375 36.54C104.362 38.22 103.015 39.5533 101.335 40.54C99.682 41.5 97.842 41.98 95.8153 41.98ZM95.8153 38.38C97.1486 38.38 98.3486 38.0467 99.4153 37.38C100.509 36.7133 101.362 35.7933 101.975 34.62C102.615 33.4467 102.935 32.14 102.935 30.7C102.935 29.2333 102.615 27.94 101.975 26.82C101.362 25.6733 100.509 24.7667 99.4153 24.1C98.3486 23.4067 97.1486 23.06 95.8153 23.06C94.4553 23.06 93.2286 23.4067 92.1353 24.1C91.0686 24.7667 90.2153 25.6733 89.5753 26.82C88.9353 27.94 88.6153 29.2333 88.6153 30.7C88.6153 32.14 88.9353 33.4467 89.5753 34.62C90.2153 35.7933 91.0686 36.7133 92.1353 37.38C93.2286 38.0467 94.4553 38.38 95.8153 38.38ZM121.987 41.98C119.907 41.98 118.027 41.5 116.347 40.54C114.667 39.5533 113.334 38.2067 112.347 36.5C111.361 34.7933 110.867 32.86 110.867 30.7C110.867 28.54 111.347 26.62 112.307 24.94C113.294 23.26 114.627 21.9267 116.307 20.94C117.987 19.9533 119.881 19.46 121.987 19.46C124.067 19.46 125.947 19.9533 127.627 20.94C129.307 21.9 130.627 23.22 131.587 24.9C132.574 26.58 133.067 28.5133 133.067 30.7C133.067 32.8867 132.561 34.8333 131.547 36.54C130.534 38.22 129.187 39.5533 127.507 40.54C125.854 41.5 124.014 41.98 121.987 41.98ZM121.987 38.38C123.321 38.38 124.521 38.0467 125.587 37.38C126.681 36.7133 127.534 35.7933 128.147 34.62C128.787 33.4467 129.107 32.14 129.107 30.7C129.107 29.2333 128.787 27.94 128.147 26.82C127.534 25.6733 126.681 24.7667 125.587 24.1C124.521 23.4067 123.321 23.06 121.987 23.06C120.627 23.06 119.401 23.4067 118.307 24.1C117.241 24.7667 116.387 25.6733 115.747 26.82C115.107 27.94 114.787 29.2333 114.787 30.7C114.787 32.14 115.107 33.4467 115.747 34.62C116.387 35.7933 117.241 36.7133 118.307 37.38C119.401 38.0467 120.627 38.38 121.987 38.38ZM148.199 50.3C146.679 50.3 145.266 50.06 143.959 49.58C142.679 49.1 141.572 48.4333 140.639 47.58C139.732 46.7533 139.039 45.78 138.559 44.66L142.039 43.06C142.412 44.0733 143.119 44.9267 144.159 45.62C145.226 46.34 146.559 46.7 148.159 46.7C149.386 46.7 150.492 46.46 151.479 45.98C152.492 45.5267 153.292 44.8333 153.879 43.9C154.466 42.9933 154.759 41.8867 154.759 40.58V35.74L155.439 36.46C154.692 37.9267 153.612 39.0467 152.199 39.82C150.812 40.5933 149.279 40.98 147.599 40.98C145.572 40.98 143.759 40.5133 142.159 39.58C140.559 38.62 139.306 37.3267 138.399 35.7C137.492 34.0467 137.039 32.22 137.039 30.22C137.039 28.1933 137.492 26.3667 138.399 24.74C139.306 23.1133 140.546 21.8333 142.119 20.9C143.719 19.94 145.532 19.46 147.559 19.46C149.239 19.46 150.759 19.8467 152.119 20.62C153.506 21.3667 154.612 22.4067 155.439 23.74L154.879 24.74V19.94H158.519V40.58C158.519 42.4467 158.079 44.1133 157.199 45.58C156.319 47.0467 155.092 48.1933 153.519 49.02C151.972 49.8733 150.199 50.3 148.199 50.3ZM147.919 37.38C149.199 37.38 150.346 37.06 151.359 36.42C152.399 35.78 153.226 34.9267 153.839 33.86C154.452 32.7667 154.759 31.5533 154.759 30.22C154.759 28.9133 154.452 27.7133 153.839 26.62C153.226 25.5267 152.399 24.66 151.359 24.02C150.346 23.38 149.199 23.06 147.919 23.06C146.612 23.06 145.426 23.38 144.359 24.02C143.292 24.66 142.452 25.5267 141.839 26.62C141.252 27.6867 140.959 28.8867 140.959 30.22C140.959 31.5533 141.252 32.7667 141.839 33.86C142.452 34.9267 143.279 35.78 144.319 36.42C145.386 37.06 146.586 37.38 147.919 37.38ZM164.286 41.5V11.22H168.006V41.5H164.286ZM183.698 41.98C181.618 41.98 179.765 41.4867 178.138 40.5C176.512 39.5133 175.232 38.1667 174.298 36.46C173.365 34.7267 172.898 32.7933 172.898 30.66C172.898 28.5 173.352 26.58 174.258 24.9C175.192 23.22 176.445 21.9 178.018 20.94C179.618 19.9533 181.405 19.46 183.378 19.46C184.978 19.46 186.392 19.7533 187.618 20.34C188.872 20.9 189.925 21.6733 190.778 22.66C191.658 23.62 192.325 24.7267 192.778 25.98C193.258 27.2067 193.498 28.4867 193.498 29.82C193.498 30.1133 193.472 30.4467 193.418 30.82C193.392 31.1667 193.352 31.5 193.298 31.82H175.618V28.62H191.138L189.378 30.06C189.618 28.6733 189.485 27.4333 188.978 26.34C188.472 25.2467 187.725 24.38 186.738 23.74C185.752 23.1 184.632 22.78 183.378 22.78C182.125 22.78 180.978 23.1 179.938 23.74C178.898 24.38 178.085 25.3 177.498 26.5C176.938 27.6733 176.712 29.0733 176.818 30.7C176.712 32.2733 176.952 33.66 177.538 34.86C178.152 36.0333 179.005 36.9533 180.098 37.62C181.218 38.26 182.432 38.58 183.738 38.58C185.178 38.58 186.392 38.2467 187.378 37.58C188.365 36.9133 189.165 36.06 189.778 35.02L192.898 36.62C192.472 37.6067 191.805 38.5133 190.898 39.34C190.018 40.14 188.965 40.78 187.738 41.26C186.538 41.74 185.192 41.98 183.698 41.98Z" fill="white"/>
</svg>
