<svg width="164" height="65" viewBox="0 0 164 65" fill="none" xmlns="http://www.w3.org/2000/svg">
<path d="M2.592 38.248H17.856C18.496 38.248 19.088 38.136 19.632 37.912C20.176 37.688 20.656 37.384 21.072 37C21.488 36.584 21.808 36.104 22.032 35.56C22.256 35.016 22.368 34.44 22.368 33.832C22.368 32.808 22.064 32.024 21.456 31.48C20.88 30.936 20.096 30.52 19.104 30.232C18.112 29.912 16.992 29.688 15.744 29.56C14.496 29.4 13.216 29.24 11.904 29.08C10.592 28.888 9.312 28.648 8.064 28.36C6.816 28.04 5.696 27.56 4.704 26.92C3.712 26.248 2.912 25.368 2.304 24.28C1.728 23.192 1.44 21.784 1.44 20.056C1.44 18.776 1.68 17.576 2.16 16.456C2.64 15.304 3.296 14.312 4.128 13.48C4.992 12.648 5.984 11.992 7.104 11.512C8.224 11.032 9.424 10.792 10.704 10.792H26.4V15.544H10.704C10.064 15.544 9.472 15.672 8.928 15.928C8.384 16.152 7.904 16.472 7.488 16.888C7.104 17.272 6.784 17.752 6.528 18.328C6.304 18.872 6.192 19.448 6.192 20.056C6.192 21.08 6.48 21.88 7.056 22.456C7.664 23.032 8.464 23.48 9.456 23.8C10.448 24.088 11.568 24.312 12.816 24.472C14.064 24.6 15.344 24.76 16.656 24.952C17.968 25.112 19.248 25.352 20.496 25.672C21.744 25.96 22.864 26.424 23.856 27.064C24.848 27.704 25.632 28.568 26.208 29.656C26.816 30.744 27.12 32.136 27.12 33.832C27.12 35.144 26.864 36.36 26.352 37.48C25.872 38.568 25.216 39.528 24.384 40.36C23.552 41.192 22.56 41.848 21.408 42.328C20.288 42.776 19.104 43 17.856 43H2.592V38.248ZM46.8349 38.824V32.632V20.632H51.2989V32.728V38.824C51.2989 40.392 50.9949 41.864 50.3869 43.24C49.7789 44.616 48.9629 45.816 47.9389 46.84C46.9149 47.896 45.6989 48.712 44.2909 49.288C42.9149 49.896 41.4429 50.2 39.8749 50.2H32.9629V45.736H39.8749C40.5789 45.736 41.3309 45.56 42.1309 45.208C42.9629 44.888 43.7309 44.424 44.4349 43.816C45.1389 43.208 45.7149 42.488 46.1629 41.656C46.6109 40.792 46.8349 39.848 46.8349 38.824ZM34.4989 20.632V32.392C34.4669 33.352 34.5949 34.2 34.8829 34.936C35.1709 35.64 35.5709 36.264 36.0829 36.808C36.5949 37.32 37.1709 37.72 37.8109 38.008C38.4829 38.296 39.1709 38.488 39.8749 38.584V43.144C38.4669 43.048 37.1549 42.696 35.9389 42.088C34.7549 41.48 33.7149 40.696 32.8189 39.736C31.9229 38.776 31.2189 37.672 30.7069 36.424C30.2269 35.144 30.0029 33.8 30.0349 32.392V20.632H34.4989ZM72.4624 43V31.624C72.4624 30.664 72.2704 29.768 71.8864 28.936C71.5344 28.072 71.0384 27.336 70.3984 26.728C69.7904 26.088 69.0704 25.592 68.2384 25.24C67.4064 24.856 66.5104 24.664 65.5504 24.664C64.5904 24.664 63.6784 24.856 62.8144 25.24C61.9824 25.592 61.2464 26.088 60.6064 26.728C59.9984 27.336 59.5184 28.072 59.1664 28.936C58.8144 29.768 58.6384 30.664 58.6384 31.624V43H54.1744V31.624C54.1744 30.056 54.4624 28.584 55.0384 27.208C55.6464 25.8 56.4624 24.584 57.4864 23.56C58.5424 22.536 59.7584 21.72 61.1344 21.112C62.5104 20.504 63.9824 20.2 65.5504 20.2C67.1184 20.2 68.5904 20.504 69.9664 21.112C71.3424 21.72 72.5424 22.536 73.5664 23.56C74.6224 24.584 75.4384 25.8 76.0144 27.208C76.6224 28.584 76.9264 30.056 76.9264 31.624V43H72.4624ZM91.191 24.664C90.231 24.664 89.319 24.856 88.455 25.24C87.623 25.592 86.887 26.088 86.247 26.728C85.639 27.336 85.159 28.072 84.807 28.936C84.455 29.768 84.279 30.664 84.279 31.624C84.279 32.584 84.455 33.48 84.807 34.312C85.159 35.144 85.639 35.88 86.247 36.52C86.887 37.128 87.623 37.624 88.455 38.008C89.319 38.36 90.231 38.536 91.191 38.536C92.151 38.536 93.047 38.36 93.879 38.008C94.711 37.624 95.431 37.128 96.039 36.52C96.679 35.88 97.175 35.144 97.527 34.312C97.911 33.48 98.103 32.584 98.103 31.624V22.552V17.128V14.344H102.567V31.624C102.567 33.192 102.263 34.664 101.655 36.04C101.079 37.416 100.263 38.632 99.207 39.688C98.183 40.712 96.983 41.528 95.607 42.136C94.231 42.712 92.759 43 91.191 43C89.623 43 88.151 42.712 86.775 42.136C85.399 41.528 84.183 40.712 83.127 39.688C82.103 38.632 81.287 37.416 80.679 36.04C80.103 34.664 79.815 33.192 79.815 31.624C79.815 30.056 80.103 28.584 80.679 27.208C81.287 25.8 82.103 24.584 83.127 23.56C84.183 22.536 85.399 21.72 86.775 21.112C88.151 20.504 89.623 20.2 91.191 20.2V24.664ZM110.16 29.608H124.416C123.968 28.04 123.104 26.744 121.824 25.72C120.544 24.696 119.04 24.184 117.312 24.184C115.584 24.184 114.064 24.696 112.752 25.72C111.472 26.744 110.608 28.04 110.16 29.608ZM124.272 34.072H110.352C110.864 35.512 111.744 36.696 112.992 37.624C114.24 38.552 115.68 39.016 117.312 39.016C118.528 39.016 119.648 38.744 120.672 38.2C121.728 37.656 122.592 36.92 123.264 35.992H128.304C127.856 37.08 127.264 38.088 126.528 39.016C125.824 39.912 124.992 40.696 124.032 41.368C123.072 42.04 122.016 42.568 120.864 42.952C119.744 43.304 118.56 43.48 117.312 43.48C115.68 43.48 114.144 43.176 112.704 42.568C111.264 41.928 110 41.08 108.912 40.024C107.856 38.936 107.008 37.672 106.368 36.232C105.76 34.792 105.456 33.256 105.456 31.624C105.456 29.992 105.76 28.456 106.368 27.016C107.008 25.544 107.856 24.28 108.912 23.224C110 22.136 111.264 21.288 112.704 20.68C114.144 20.04 115.68 19.72 117.312 19.72C118.944 19.72 120.48 20.04 121.92 20.68C123.36 21.288 124.608 22.136 125.664 23.224C126.752 24.28 127.6 25.544 128.208 27.016C128.848 28.456 129.168 29.992 129.168 31.624C129.168 32.488 129.072 33.304 128.88 34.072H124.272Z" fill="#252C32"/>
<path d="M3.39 63.12C2.91667 63.12 2.48667 63.03 2.1 62.85C1.71333 62.67 1.38667 62.43 1.12 62.13C0.853333 61.8233 0.663333 61.4867 0.55 61.12L1.27 60.85C1.44333 61.3567 1.71333 61.7433 2.08 62.01C2.44667 62.27 2.88333 62.4 3.39 62.4C3.71 62.4 3.99 62.35 4.23 62.25C4.47667 62.1433 4.66667 61.9967 4.8 61.81C4.93333 61.6233 5 61.4067 5 61.16C5 60.7933 4.9 60.51 4.7 60.31C4.5 60.11 4.21333 59.9567 3.84 59.85L2.5 59.45C1.97333 59.2967 1.56667 59.04 1.28 58.68C1 58.32 0.86 57.91 0.86 57.45C0.86 57.0567 0.956667 56.71 1.15 56.41C1.34333 56.1033 1.60667 55.8633 1.94 55.69C2.28 55.5167 2.66333 55.43 3.09 55.43C3.53667 55.43 3.93667 55.5133 4.29 55.68C4.65 55.84 4.95333 56.0533 5.2 56.32C5.44667 56.5867 5.62333 56.8833 5.73 57.21L5.03 57.49C4.87 57.05 4.62 56.7167 4.28 56.49C3.94667 56.2633 3.55333 56.15 3.1 56.15C2.81333 56.15 2.56 56.2 2.34 56.3C2.12667 56.4 1.96 56.5433 1.84 56.73C1.72 56.9167 1.66 57.1367 1.66 57.39C1.66 57.6967 1.75667 57.9733 1.95 58.22C2.14333 58.46 2.44 58.64 2.84 58.76L4.02 59.11C4.60667 59.2833 5.05 59.5333 5.35 59.86C5.65 60.1867 5.8 60.5967 5.8 61.09C5.8 61.49 5.69667 61.8433 5.49 62.15C5.29 62.45 5.00667 62.6867 4.64 62.86C4.28 63.0333 3.86333 63.12 3.39 63.12ZM10.7448 63.12C10.2382 63.12 9.77818 63 9.36484 62.76C8.95151 62.5133 8.62151 62.18 8.37484 61.76C8.13484 61.3333 8.01484 60.85 8.01484 60.31C8.01484 59.7767 8.13484 59.3 8.37484 58.88C8.61484 58.46 8.93818 58.13 9.34484 57.89C9.75818 57.6433 10.2248 57.52 10.7448 57.52C11.2648 57.52 11.7282 57.64 12.1348 57.88C12.5482 58.12 12.8715 58.45 13.1048 58.87C13.3448 59.29 13.4648 59.77 13.4648 60.31C13.4648 60.8567 13.3415 61.3433 13.0948 61.77C12.8482 62.19 12.5182 62.52 12.1048 62.76C11.6982 63 11.2448 63.12 10.7448 63.12ZM10.7448 62.37C11.1048 62.37 11.4282 62.28 11.7148 62.1C12.0082 61.92 12.2382 61.6733 12.4048 61.36C12.5782 61.0467 12.6648 60.6967 12.6648 60.31C12.6648 59.9233 12.5782 59.5767 12.4048 59.27C12.2382 58.9633 12.0082 58.72 11.7148 58.54C11.4282 58.36 11.1048 58.27 10.7448 58.27C10.3848 58.27 10.0582 58.36 9.76484 58.54C9.47818 58.72 9.24818 58.9633 9.07484 59.27C8.90151 59.5767 8.81484 59.9233 8.81484 60.31C8.81484 60.6967 8.90151 61.0467 9.07484 61.36C9.24818 61.6733 9.47818 61.92 9.76484 62.1C10.0582 62.28 10.3848 62.37 10.7448 62.37ZM15.7876 63V55.43H16.5376V63H15.7876ZM20.9727 63.12C20.5994 63.12 20.2594 63.0333 19.9527 62.86C19.6461 62.68 19.4027 62.4333 19.2227 62.12C19.0494 61.8 18.9627 61.4333 18.9627 61.02V57.64H19.7127V60.93C19.7127 61.2167 19.7694 61.47 19.8827 61.69C20.0027 61.9033 20.1661 62.07 20.3727 62.19C20.5861 62.31 20.8294 62.37 21.1027 62.37C21.3761 62.37 21.6194 62.31 21.8327 62.19C22.0461 62.0633 22.2127 61.8867 22.3327 61.66C22.4527 61.4267 22.5127 61.15 22.5127 60.83V57.64H23.2627V63H22.5127V61.96L22.6827 62C22.5561 62.3467 22.3394 62.62 22.0327 62.82C21.7261 63.02 21.3727 63.12 20.9727 63.12ZM27.8552 63.06C27.3752 63.06 27.0052 62.92 26.7452 62.64C26.4852 62.36 26.3552 61.96 26.3552 61.44V58.39H25.3652V57.64H25.6152C25.8418 57.64 26.0218 57.5667 26.1552 57.42C26.2885 57.2667 26.3552 57.0767 26.3552 56.85V56.4H27.1052V57.64H28.2852V58.39H27.1052V61.44C27.1052 61.62 27.1318 61.78 27.1852 61.92C27.2385 62.0533 27.3285 62.16 27.4552 62.24C27.5885 62.32 27.7652 62.36 27.9852 62.36C28.0385 62.36 28.1018 62.3567 28.1752 62.35C28.2485 62.3433 28.3118 62.3367 28.3652 62.33V63C28.2852 63.02 28.1952 63.0333 28.0952 63.04C27.9952 63.0533 27.9152 63.06 27.8552 63.06ZM30.6821 63V57.64H31.4321V63H30.6821ZM30.6821 56.65V55.55H31.4321V56.65H30.6821ZM36.4773 63.12C35.9706 63.12 35.5106 63 35.0973 62.76C34.6839 62.5133 34.3539 62.18 34.1073 61.76C33.8673 61.3333 33.7473 60.85 33.7473 60.31C33.7473 59.7767 33.8673 59.3 34.1073 58.88C34.3473 58.46 34.6706 58.13 35.0773 57.89C35.4906 57.6433 35.9573 57.52 36.4773 57.52C36.9973 57.52 37.4606 57.64 37.8673 57.88C38.2806 58.12 38.6039 58.45 38.8373 58.87C39.0773 59.29 39.1973 59.77 39.1973 60.31C39.1973 60.8567 39.0739 61.3433 38.8273 61.77C38.5806 62.19 38.2506 62.52 37.8373 62.76C37.4306 63 36.9773 63.12 36.4773 63.12ZM36.4773 62.37C36.8373 62.37 37.1606 62.28 37.4473 62.1C37.7406 61.92 37.9706 61.6733 38.1373 61.36C38.3106 61.0467 38.3973 60.6967 38.3973 60.31C38.3973 59.9233 38.3106 59.5767 38.1373 59.27C37.9706 58.9633 37.7406 58.72 37.4473 58.54C37.1606 58.36 36.8373 58.27 36.4773 58.27C36.1173 58.27 35.7906 58.36 35.4973 58.54C35.2106 58.72 34.9806 58.9633 34.8073 59.27C34.6339 59.5767 34.5473 59.9233 34.5473 60.31C34.5473 60.6967 34.6339 61.0467 34.8073 61.36C34.9806 61.6733 35.2106 61.92 35.4973 62.1C35.7906 62.28 36.1173 62.37 36.4773 62.37ZM41.52 63V57.64H42.27V58.68L42.1 58.64C42.2333 58.2933 42.45 58.02 42.75 57.82C43.0567 57.62 43.41 57.52 43.81 57.52C44.19 57.52 44.53 57.6067 44.83 57.78C45.1367 57.9533 45.3767 58.1933 45.55 58.5C45.73 58.8 45.82 59.14 45.82 59.52V63H45.07V59.81C45.07 59.4833 45.01 59.2067 44.89 58.98C44.7767 58.7533 44.6133 58.58 44.4 58.46C44.1933 58.3333 43.9533 58.27 43.68 58.27C43.4067 58.27 43.1633 58.3333 42.95 58.46C42.7367 58.58 42.57 58.7567 42.45 58.99C42.33 59.2167 42.27 59.49 42.27 59.81V63H41.52ZM50.1124 63.12C49.5991 63.12 49.1491 62.99 48.7624 62.73C48.3758 62.47 48.0958 62.1167 47.9224 61.67L48.5524 61.37C48.7058 61.6967 48.9191 61.9567 49.1924 62.15C49.4724 62.3433 49.7791 62.44 50.1124 62.44C50.4324 62.44 50.7024 62.3633 50.9224 62.21C51.1424 62.05 51.2524 61.8433 51.2524 61.59C51.2524 61.4033 51.1991 61.2567 51.0924 61.15C50.9858 61.0367 50.8624 60.95 50.7224 60.89C50.5824 60.83 50.4591 60.7867 50.3524 60.76L49.5824 60.54C49.0891 60.4 48.7324 60.2033 48.5124 59.95C48.2924 59.6967 48.1824 59.4033 48.1824 59.07C48.1824 58.7567 48.2624 58.4833 48.4224 58.25C48.5824 58.0167 48.7991 57.8367 49.0724 57.71C49.3458 57.5833 49.6491 57.52 49.9824 57.52C50.4358 57.52 50.8458 57.64 51.2124 57.88C51.5858 58.1133 51.8491 58.44 52.0024 58.86L51.3624 59.16C51.2291 58.86 51.0358 58.6267 50.7824 58.46C50.5358 58.2867 50.2591 58.2 49.9524 58.2C49.6524 58.2 49.4124 58.2767 49.2324 58.43C49.0524 58.5833 48.9624 58.7767 48.9624 59.01C48.9624 59.19 49.0091 59.3333 49.1024 59.44C49.1958 59.5467 49.3024 59.6267 49.4224 59.68C49.5491 59.7333 49.6591 59.7733 49.7524 59.8L50.6424 60.06C51.0758 60.1867 51.4124 60.3833 51.6524 60.65C51.8991 60.9167 52.0224 61.23 52.0224 61.59C52.0224 61.8833 51.9391 62.1467 51.7724 62.38C51.6124 62.6133 51.3891 62.7967 51.1024 62.93C50.8158 63.0567 50.4858 63.12 50.1124 63.12ZM57.1495 63V55.55H57.9495V63H57.1495ZM60.5981 63V57.64H61.3481V58.68L61.1781 58.64C61.3115 58.2933 61.5281 58.02 61.8281 57.82C62.1348 57.62 62.4881 57.52 62.8881 57.52C63.2681 57.52 63.6081 57.6067 63.9081 57.78C64.2148 57.9533 64.4548 58.1933 64.6281 58.5C64.8081 58.8 64.8981 59.14 64.8981 59.52V63H64.1481V59.81C64.1481 59.4833 64.0881 59.2067 63.9681 58.98C63.8548 58.7533 63.6915 58.58 63.4781 58.46C63.2715 58.3333 63.0315 58.27 62.7581 58.27C62.4848 58.27 62.2415 58.3333 62.0281 58.46C61.8148 58.58 61.6481 58.7567 61.5281 58.99C61.4081 59.2167 61.3481 59.49 61.3481 59.81V63H60.5981ZM69.3805 63.06C68.9005 63.06 68.5305 62.92 68.2705 62.64C68.0105 62.36 67.8805 61.96 67.8805 61.44V58.39H66.8905V57.64H67.1405C67.3672 57.64 67.5472 57.5667 67.6805 57.42C67.8139 57.2667 67.8805 57.0767 67.8805 56.85V56.4H68.6305V57.64H69.8105V58.39H68.6305V61.44C68.6305 61.62 68.6572 61.78 68.7105 61.92C68.7639 62.0533 68.8539 62.16 68.9805 62.24C69.1139 62.32 69.2905 62.36 69.5105 62.36C69.5639 62.36 69.6272 62.3567 69.7005 62.35C69.7739 62.3433 69.8372 62.3367 69.8905 62.33V63C69.8105 63.02 69.7205 63.0333 69.6205 63.04C69.5205 63.0533 69.4405 63.06 69.3805 63.06ZM74.4522 63.12C73.9522 63.12 73.4989 63 73.0922 62.76C72.6922 62.5133 72.3755 62.1767 72.1422 61.75C71.9089 61.3233 71.7922 60.84 71.7922 60.3C71.7922 59.76 71.9055 59.2833 72.1322 58.87C72.3589 58.45 72.6655 58.12 73.0522 57.88C73.4455 57.64 73.8855 57.52 74.3722 57.52C74.7589 57.52 75.1022 57.5933 75.4022 57.74C75.7089 57.88 75.9689 58.0733 76.1822 58.32C76.3955 58.56 76.5589 58.8333 76.6722 59.14C76.7855 59.44 76.8422 59.75 76.8422 60.07C76.8422 60.1367 76.8389 60.2133 76.8322 60.3C76.8255 60.38 76.8155 60.4633 76.8022 60.55H72.2722V59.85H76.3722L76.0122 60.15C76.0722 59.7833 76.0289 59.4567 75.8822 59.17C75.7422 58.8767 75.5389 58.6467 75.2722 58.48C75.0055 58.3067 74.7055 58.22 74.3722 58.22C74.0389 58.22 73.7289 58.3067 73.4422 58.48C73.1622 58.6533 72.9422 58.8967 72.7822 59.21C72.6222 59.5167 72.5589 59.8833 72.5922 60.31C72.5589 60.7367 72.6255 61.11 72.7922 61.43C72.9655 61.7433 73.1989 61.9867 73.4922 62.16C73.7922 62.3333 74.1122 62.42 74.4522 62.42C74.8455 62.42 75.1755 62.3267 75.4422 62.14C75.7089 61.9533 75.9255 61.72 76.0922 61.44L76.7322 61.78C76.6255 62.02 76.4622 62.2433 76.2422 62.45C76.0222 62.65 75.7589 62.8133 75.4522 62.94C75.1522 63.06 74.8189 63.12 74.4522 63.12ZM79.1645 63V57.64H79.9145V58.52L79.8145 58.39C79.9412 58.1367 80.1312 57.9367 80.3845 57.79C80.6445 57.6433 80.9579 57.57 81.3245 57.57H81.6645V58.32H81.1945C80.8079 58.32 80.4979 58.44 80.2645 58.68C80.0312 58.92 79.9145 59.26 79.9145 59.7V63H79.1645ZM83.5434 63V57.64H84.2934V58.68L84.1234 58.64C84.2568 58.2933 84.4734 58.02 84.7734 57.82C85.0801 57.62 85.4334 57.52 85.8334 57.52C86.2134 57.52 86.5534 57.6067 86.8534 57.78C87.1601 57.9533 87.4001 58.1933 87.5734 58.5C87.7534 58.8 87.8434 59.14 87.8434 59.52V63H87.0934V59.81C87.0934 59.4833 87.0334 59.2067 86.9134 58.98C86.8001 58.7533 86.6368 58.58 86.4234 58.46C86.2168 58.3333 85.9768 58.27 85.7034 58.27C85.4301 58.27 85.1868 58.3333 84.9734 58.46C84.7601 58.58 84.5934 58.7567 84.4734 58.99C84.3534 59.2167 84.2934 59.49 84.2934 59.81V63H83.5434ZM91.8259 63.12C91.4859 63.12 91.1825 63.0567 90.9159 62.93C90.6492 62.7967 90.4392 62.6167 90.2859 62.39C90.1325 62.1633 90.0559 61.9033 90.0559 61.61C90.0559 61.33 90.1159 61.0767 90.2359 60.85C90.3559 60.6167 90.5425 60.42 90.7959 60.26C91.0492 60.1 91.3725 59.9867 91.7659 59.92L93.8659 59.57V60.25L91.9459 60.57C91.5592 60.6367 91.2792 60.76 91.1059 60.94C90.9392 61.12 90.8559 61.3333 90.8559 61.58C90.8559 61.82 90.9492 62.0233 91.1359 62.19C91.3292 62.3567 91.5759 62.44 91.8759 62.44C92.2425 62.44 92.5625 62.3633 92.8359 62.21C93.1092 62.05 93.3225 61.8367 93.4759 61.57C93.6292 61.3033 93.7059 61.0067 93.7059 60.68V59.32C93.7059 59 93.5892 58.74 93.3559 58.54C93.1225 58.34 92.8192 58.24 92.4459 58.24C92.1192 58.24 91.8325 58.3233 91.5859 58.49C91.3392 58.65 91.1559 58.86 91.0359 59.12L90.3559 58.75C90.4559 58.5233 90.6125 58.3167 90.8259 58.13C91.0459 57.9433 91.2959 57.7967 91.5759 57.69C91.8559 57.5767 92.1459 57.52 92.4459 57.52C92.8392 57.52 93.1859 57.5967 93.4859 57.75C93.7925 57.9033 94.0292 58.1167 94.1959 58.39C94.3692 58.6567 94.4559 58.9667 94.4559 59.32V63H93.7059V61.93L93.8159 62.04C93.7225 62.24 93.5759 62.4233 93.3759 62.59C93.1825 62.75 92.9525 62.88 92.6859 62.98C92.4259 63.0733 92.1392 63.12 91.8259 63.12ZM98.9509 63.06C98.4709 63.06 98.1009 62.92 97.8409 62.64C97.5809 62.36 97.4509 61.96 97.4509 61.44V58.39H96.4609V57.64H96.7109C96.9375 57.64 97.1175 57.5667 97.2509 57.42C97.3842 57.2667 97.4509 57.0767 97.4509 56.85V56.4H98.2009V57.64H99.3809V58.39H98.2009V61.44C98.2009 61.62 98.2275 61.78 98.2809 61.92C98.3342 62.0533 98.4242 62.16 98.5509 62.24C98.6842 62.32 98.8609 62.36 99.0809 62.36C99.1342 62.36 99.1975 62.3567 99.2709 62.35C99.3442 62.3433 99.4075 62.3367 99.4609 62.33V63C99.3809 63.02 99.2909 63.0333 99.1909 63.04C99.0909 63.0533 99.0109 63.06 98.9509 63.06ZM101.778 63V57.64H102.528V63H101.778ZM101.778 56.65V55.55H102.528V56.65H101.778ZM107.573 63.12C107.066 63.12 106.606 63 106.193 62.76C105.78 62.5133 105.45 62.18 105.203 61.76C104.963 61.3333 104.843 60.85 104.843 60.31C104.843 59.7767 104.963 59.3 105.203 58.88C105.443 58.46 105.766 58.13 106.173 57.89C106.586 57.6433 107.053 57.52 107.573 57.52C108.093 57.52 108.556 57.64 108.963 57.88C109.376 58.12 109.7 58.45 109.933 58.87C110.173 59.29 110.293 59.77 110.293 60.31C110.293 60.8567 110.17 61.3433 109.923 61.77C109.676 62.19 109.346 62.52 108.933 62.76C108.526 63 108.073 63.12 107.573 63.12ZM107.573 62.37C107.933 62.37 108.256 62.28 108.543 62.1C108.836 61.92 109.066 61.6733 109.233 61.36C109.406 61.0467 109.493 60.6967 109.493 60.31C109.493 59.9233 109.406 59.5767 109.233 59.27C109.066 58.9633 108.836 58.72 108.543 58.54C108.256 58.36 107.933 58.27 107.573 58.27C107.213 58.27 106.886 58.36 106.593 58.54C106.306 58.72 106.076 58.9633 105.903 59.27C105.73 59.5767 105.643 59.9233 105.643 60.31C105.643 60.6967 105.73 61.0467 105.903 61.36C106.076 61.6733 106.306 61.92 106.593 62.1C106.886 62.28 107.213 62.37 107.573 62.37ZM112.616 63V57.64H113.366V58.68L113.196 58.64C113.329 58.2933 113.546 58.02 113.846 57.82C114.152 57.62 114.506 57.52 114.906 57.52C115.286 57.52 115.626 57.6067 115.926 57.78C116.232 57.9533 116.472 58.1933 116.646 58.5C116.826 58.8 116.916 59.14 116.916 59.52V63H116.166V59.81C116.166 59.4833 116.106 59.2067 115.986 58.98C115.872 58.7533 115.709 58.58 115.496 58.46C115.289 58.3333 115.049 58.27 114.776 58.27C114.502 58.27 114.259 58.3333 114.046 58.46C113.832 58.58 113.666 58.7567 113.546 58.99C113.426 59.2167 113.366 59.49 113.366 59.81V63H112.616ZM120.898 63.12C120.558 63.12 120.255 63.0567 119.988 62.93C119.721 62.7967 119.511 62.6167 119.358 62.39C119.205 62.1633 119.128 61.9033 119.128 61.61C119.128 61.33 119.188 61.0767 119.308 60.85C119.428 60.6167 119.615 60.42 119.868 60.26C120.121 60.1 120.445 59.9867 120.838 59.92L122.938 59.57V60.25L121.018 60.57C120.631 60.6367 120.351 60.76 120.178 60.94C120.011 61.12 119.928 61.3333 119.928 61.58C119.928 61.82 120.021 62.0233 120.208 62.19C120.401 62.3567 120.648 62.44 120.948 62.44C121.315 62.44 121.635 62.3633 121.908 62.21C122.181 62.05 122.395 61.8367 122.548 61.57C122.701 61.3033 122.778 61.0067 122.778 60.68V59.32C122.778 59 122.661 58.74 122.428 58.54C122.195 58.34 121.891 58.24 121.518 58.24C121.191 58.24 120.905 58.3233 120.658 58.49C120.411 58.65 120.228 58.86 120.108 59.12L119.428 58.75C119.528 58.5233 119.685 58.3167 119.898 58.13C120.118 57.9433 120.368 57.7967 120.648 57.69C120.928 57.5767 121.218 57.52 121.518 57.52C121.911 57.52 122.258 57.5967 122.558 57.75C122.865 57.9033 123.101 58.1167 123.268 58.39C123.441 58.6567 123.528 58.9667 123.528 59.32V63H122.778V61.93L122.888 62.04C122.795 62.24 122.648 62.4233 122.448 62.59C122.255 62.75 122.025 62.88 121.758 62.98C121.498 63.0733 121.211 63.12 120.898 63.12ZM126.071 63V55.43H126.821V63H126.071ZM132.165 63V55.55H132.965V62.25H136.265V63H132.165ZM139.172 63V56.3H137.112V55.55H142.012V56.3H139.972V63H139.172ZM143.999 63V55.55H146.449C147.189 55.55 147.832 55.7033 148.379 56.01C148.926 56.31 149.349 56.74 149.649 57.3C149.949 57.8533 150.099 58.51 150.099 59.27C150.099 60.0233 149.949 60.68 149.649 61.24C149.349 61.8 148.926 62.2333 148.379 62.54C147.832 62.8467 147.189 63 146.449 63H143.999ZM144.799 62.25H146.449C147.022 62.25 147.519 62.13 147.939 61.89C148.359 61.6433 148.682 61.2967 148.909 60.85C149.142 60.4033 149.259 59.8767 149.259 59.27C149.259 58.6633 149.142 58.14 148.909 57.7C148.676 57.2533 148.349 56.91 147.929 56.67C147.509 56.4233 147.016 56.3 146.449 56.3H144.799V62.25Z" fill="#252C32"/>
<mask id="path-3-inside-1_26_2347" fill="white">
<path d="M158.477 25.6218C159.692 23.1161 159.862 20.2303 158.95 17.5993C158.037 14.9684 156.117 12.8076 153.611 11.5925C151.105 10.3775 148.22 10.2075 145.589 11.1201C142.958 12.0327 140.797 13.9531 139.582 16.4588L142.889 18.0623C143.678 16.4336 145.083 15.1854 146.793 14.5922C148.503 13.999 150.379 14.1094 152.008 14.8993C153.636 15.6891 154.885 17.0935 155.478 18.8037C156.071 20.5138 155.96 22.3896 155.171 24.0183L158.477 25.6218Z"/>
</mask>
<path d="M158.477 25.6218C159.692 23.1161 159.862 20.2303 158.95 17.5993C158.037 14.9684 156.117 12.8076 153.611 11.5925C151.105 10.3775 148.22 10.2075 145.589 11.1201C142.958 12.0327 140.797 13.9531 139.582 16.4588L142.889 18.0623C143.678 16.4336 145.083 15.1854 146.793 14.5922C148.503 13.999 150.379 14.1094 152.008 14.8993C153.636 15.6891 154.885 17.0935 155.478 18.8037C156.071 20.5138 155.96 22.3896 155.171 24.0183L158.477 25.6218Z" stroke="#6642EC" stroke-width="6" mask="url(#path-3-inside-1_26_2347)"/>
<circle cx="143.5" cy="31.5" r="9.85" stroke="url(#paint0_linear_26_2347)" stroke-width="5.3"/>
<circle cx="157" cy="5" r="4" stroke="url(#paint1_linear_26_2347)" stroke-width="2"/>
<defs>
<linearGradient id="paint0_linear_26_2347" x1="147" y1="25.5" x2="137" y2="40.5" gradientUnits="userSpaceOnUse">
<stop stop-color="#6642EC"/>
<stop offset="1" stop-color="#F15A29"/>
</linearGradient>
<linearGradient id="paint1_linear_26_2347" x1="158.4" y1="2.6" x2="154.4" y2="8.6" gradientUnits="userSpaceOnUse">
<stop stop-color="#6642EC"/>
<stop offset="1" stop-color="#2A007A"/>
</linearGradient>
</defs>
</svg>
