<svg width="40" height="40" viewBox="0 0 40 40" fill="none" xmlns="http://www.w3.org/2000/svg">
<path d="M18.6034 32.7767C19.03 33.0456 19.4956 33.1784 20 33.175C20.5045 33.1717 20.9706 33.035 21.3984 32.765L28.5317 28.3984C27.2506 27.575 25.8878 26.9417 24.4434 26.4984C22.9989 26.055 21.5178 25.8334 20 25.8334C18.4822 25.8334 17 26.0606 15.5534 26.515C14.1056 26.9684 12.7267 27.5928 11.4167 28.3884L18.6034 32.7767ZM20 20.8334C21.3978 20.8334 22.5806 20.3495 23.5484 19.3817C24.5161 18.4139 25 17.2311 25 15.8334C25 14.4356 24.5161 13.2528 23.5484 12.285C22.5806 11.3172 21.3978 10.8334 20 10.8334C18.6022 10.8334 17.4195 11.3172 16.4517 12.285C15.4839 13.2528 15 14.4356 15 15.8334C15 17.2311 15.4839 18.4139 16.4517 19.3817C17.4195 20.3495 18.6022 20.8334 20 20.8334ZM18.6034 34.695L7.96169 28.2017C7.54724 27.9606 7.2278 27.6328 7.00335 27.2184C6.77891 26.8039 6.66669 26.3584 6.66669 25.8817V14.1167C6.66669 13.64 6.77891 13.1945 7.00335 12.78C7.2278 12.3656 7.54724 12.0378 7.96169 11.7967L18.6034 5.30336C19.03 5.03447 19.4956 4.90002 20 4.90002C20.5045 4.90002 20.9706 5.03447 21.3984 5.30336L32.0384 11.7967C32.4528 12.0378 32.7722 12.3656 32.9967 12.78C33.2211 13.1945 33.3334 13.64 33.3334 14.1167V25.88C33.3334 26.3567 33.2211 26.8022 32.9967 27.2167C32.7722 27.6311 32.4528 27.9589 32.0384 28.2L21.3984 34.6934C20.9706 34.9634 20.5045 35.0984 20 35.0984C19.4956 35.0984 19.03 34.965 18.6034 34.695Z" fill="url(#paint0_linear_18_60)"/>
<defs>
<linearGradient id="paint0_linear_18_60" x1="20" y1="4.90002" x2="20" y2="35.0984" gradientUnits="userSpaceOnUse">
<stop stop-color="#2A007A"/>
<stop offset="1" stop-color="#F15A29"/>
</linearGradient>
</defs>
</svg>
