<svg width="41" height="40" viewBox="0 0 41 40" fill="none" xmlns="http://www.w3.org/2000/svg">
<path d="M18.8333 8.33329H13.8333L20.5 1.66663L27.1666 8.33329H22.1666V15.7166C20.9166 16.4833 19.8 17.4333 18.8333 18.5333V8.33329ZM37.1666 18.3333L30.5 11.6666V16.6666C27.6051 16.5476 24.7759 17.5505 22.6024 19.4663C20.4288 21.3822 19.0786 24.063 18.8333 26.95C17.5836 27.3937 16.5608 28.3147 15.9891 29.5113C15.4174 30.7078 15.3434 32.0823 15.7833 33.3333C16.227 34.583 17.1481 35.6058 18.3446 36.1775C19.5412 36.7492 20.9156 36.8232 22.1666 36.3833C23.4152 35.9381 24.4369 35.0169 25.0084 33.8208C25.5799 32.6247 25.6548 31.2511 25.2166 30C24.7166 28.5666 23.5833 27.45 22.1666 26.95C22.95 20.2833 29.6166 19.95 30.4166 19.95V24.95L37.1666 18.3333ZM18.2166 19.3166C16.0053 17.6097 13.2934 16.6784 10.5 16.6666V11.6666L3.83331 18.3333L10.5 25V20C12.7333 20.05 14.8833 20.8333 16.5666 22.3333C16.9833 21.2666 17.5333 20.25 18.2166 19.3166Z" fill="url(#paint0_linear_18_137)"/>
<defs>
<linearGradient id="paint0_linear_18_137" x1="20.5" y1="1.66663" x2="20.5" y2="36.667" gradientUnits="userSpaceOnUse">
<stop stop-color="#2A007A"/>
<stop offset="1" stop-color="#F15A29"/>
</linearGradient>
</defs>
</svg>
